HIERARCHY
ROOT Hips
{
	OFFSET 0.00000 0.00000 0.00000
	CHANNELS 6 Xposition Yposition Zposition Zrotation Yrotation Xrotation 
	JOINT LHipJoint
	{
		OFFSET 0 0 0
		CHANNELS 3 Zrotation Yrotation Xrotation
		JOINT LeftUpLeg
		{
			OFFSET 1.28858 -1.83292 1.03970
			CHANNELS 3 Zrotation Yrotation Xrotation
			JOINT LeftLeg
			{
				OFFSET 2.47846 -6.80952 0.00000
				CHANNELS 3 Zrotation Yrotation Xrotation
				JOINT LeftFoot
				{
					OFFSET 2.75274 -7.56311 0.00000
					CHANNELS 3 Zrotation Yrotation Xrotation
					JOINT LeftToeBase
					{
						OFFSET 0.12848 -0.35301 1.68223
						CHANNELS 3 Zrotation Yrotation Xrotation
						End Site
						{
							OFFSET 0.00000 -0.00000 0.87311
						}
					}
				}
			}
		}
	}
	JOINT RHipJoint
	{
		OFFSET 0 0 0
		CHANNELS 3 Zrotation Yrotation Xrotation
		JOINT RightUpLeg
		{
			OFFSET -1.31183 -1.83292 1.03970
			CHANNELS 3 Zrotation Yrotation Xrotation
			JOINT RightLeg
			{
				OFFSET -2.44740 -6.72417 0.00000
				CHANNELS 3 Zrotation Yrotation Xrotation
				JOINT RightFoot
				{
					OFFSET -2.67343 -7.34519 0.00000
					CHANNELS 3 Zrotation Yrotation Xrotation
					JOINT RightToeBase
					{
						OFFSET -0.16914 -0.46471 1.77626
						CHANNELS 3 Zrotation Yrotation Xrotation
						End Site
						{
							OFFSET -0.00000 -0.00000 0.92777
						}
					}
				}
			}
		}
	}
	JOINT LowerBack
	{
		OFFSET 0 0 0
		CHANNELS 3 Zrotation Yrotation Xrotation
		JOINT Spine
		{
			OFFSET 0.01249 2.14252 0.03842
			CHANNELS 3 Zrotation Yrotation Xrotation
			JOINT Spine1
			{
				OFFSET -0.02957 2.14199 -0.03751
				CHANNELS 3 Zrotation Yrotation Xrotation
				JOINT Neck
				{
					OFFSET 0 0 0
					CHANNELS 3 Zrotation Yrotation Xrotation
					JOINT Neck1
					{
						OFFSET -0.01678 1.65709 -0.05476
						CHANNELS 3 Zrotation Yrotation Xrotation
						JOINT Head
						{
							OFFSET 0.07912 1.58331 -0.11843
							CHANNELS 3 Zrotation Yrotation Xrotation
							End Site
							{
								OFFSET 0.03298 1.73940 -0.04271
							}
						}
					}
				}
				JOINT LeftShoulder
				{
					OFFSET 0 0 0
					CHANNELS 3 Zrotation Yrotation Xrotation
					JOINT LeftArm
					{
						OFFSET 3.39556 1.16496 0.08673
						CHANNELS 3 Zrotation Yrotation Xrotation
						JOINT LeftForeArm
						{
							OFFSET 5.23910 -0.00000 -0.00000
							CHANNELS 3 Zrotation Yrotation Xrotation
							JOINT LeftHand
							{
								OFFSET 3.31467 -0.00000 0.00000
								CHANNELS 3 Zrotation Yrotation Xrotation
								JOINT LeftFingerBase
								{
									OFFSET 0 0 0
									CHANNELS 3 Zrotation Yrotation Xrotation
									JOINT LeftHandIndex1
									{
										OFFSET 0.96590 -0.00000 0.00000
										CHANNELS 3 Zrotation Yrotation Xrotation
										End Site
										{
											OFFSET 0.77873 -0.00000 0.00000
										}
									}
								}
								JOINT LThumb
								{
									OFFSET 0 0 0
									CHANNELS 3 Zrotation Yrotation Xrotation
									End Site
									{
										OFFSET 0.79062 -0.00000 0.79062
									}
								}
							}
						}
					}
				}
				JOINT RightShoulder
				{
					OFFSET 0 0 0
					CHANNELS 3 Zrotation Yrotation Xrotation
					JOINT RightArm
					{
						OFFSET -3.27193 1.31331 0.33940
						CHANNELS 3 Zrotation Yrotation Xrotation
						JOINT RightForeArm
						{
							OFFSET -5.30252 -0.00000 0.00000
							CHANNELS 3 Zrotation Yrotation Xrotation
							JOINT RightHand
							{
								OFFSET -3.67875 -0.00000 0.00000
								CHANNELS 3 Zrotation Yrotation Xrotation
								JOINT RightFingerBase
								{
									OFFSET 0 0 0
									CHANNELS 3 Zrotation Yrotation Xrotation
									JOINT RightHandIndex1
									{
										OFFSET -0.59481 -0.00000 0.00000
										CHANNELS 3 Zrotation Yrotation Xrotation
										End Site
										{
											OFFSET -0.47955 -0.00000 0.00000
										}
									}
								}
								JOINT RThumb
								{
									OFFSET 0 0 0
									CHANNELS 3 Zrotation Yrotation Xrotation
									End Site
									{
										OFFSET -0.48687 -0.00000 0.48687
									}
								}
							}
						}
					}
				}
			}
		}
	}
}
MOTION
Frames: 15
Frame Time: .0083333
13.3011 20.8514 20.9335 -0.8793 -5.3832 338.7020 0.0000 0.0000 0.0000 -14.0110 4.7977 4.6144 3.1738 10.9712 32.1828 -0.1132 -10.6028 -5.4870 0.6192 5.0360 14.0113 0.0000 0.0000 0.0000 13.1242 -7.1759 4.5255 -3.1094 -10.8701 31.8430 -1.8106 1.4964 -25.0301 -0.1020 -2.0594 5.6699 1.0791 -0.6345 -8.8949 -0.5404 -0.9217 -6.5737 -1.2280 -0.5121 -1.8549 -2.3250 -2.0461 -2.9135 5.3233 -2.8246 2.8337 2.0210 -1.3426 1.5099 0.0000 0.0000 0.0000 60.7452 -35.9695 -75.8436 14.8284 -23.9065 -3.1561 -0.0000 0.0000 -3.0281 40.0722 -26.6633 -20.6819 -7.1250 0.0000 -0.0000 5.8400 -3.1392 -6.1825 0.0000 0.0000 0.0000 -48.5040 27.4486 -80.6349 -14.1998 23.0196 -2.9058 0.0000 -0.0000 -3.4933 -30.4932 -20.2794 11.5360 7.1250 -0.0000 -0.0000 -2.1176 -53.1777 0.4261
13.3050 20.9363 20.9510 -0.8860 -5.4078 339.4990 0.0000 0.0000 0.0000 -14.0705 4.6318 4.2784 3.0255 10.7363 31.3956 -0.0980 -9.8622 -5.0998 0.7016 5.3539 14.9207 0.0000 0.0000 0.0000 13.2471 -7.0392 4.4360 -2.8825 -10.5023 30.6193 -1.7217 1.2084 -24.4710 -0.1128 -2.1659 5.9643 1.0458 -0.6168 -8.7712 -0.5987 -0.8960 -6.5796 -1.2660 -0.5001 -1.9285 -2.3898 -1.9948 -2.8336 5.5511 -2.7489 2.5349 2.1089 -1.3059 1.4034 -0.0000 0.0000 0.0000 60.7873 -35.7741 -75.9904 15.1525 -24.3581 -3.2886 -0.0000 0.0000 -3.4902 40.6101 -26.8668 -21.1803 -7.1250 0.0000 -0.0000 6.0982 -3.5661 -6.5017 -0.0000 0.0000 0.0000 -48.5884 27.3469 -81.0104 -14.2888 23.1460 -2.9407 0.0000 -0.0000 -3.9534 -30.7870 -20.3518 11.7068 7.1250 -0.0000 -0.0000 -2.4165 -53.3178 0.4946
13.3098 21.0141 20.9679 -0.9108 -5.4484 340.2570 0.0000 0.0000 0.0000 -14.1125 4.4370 3.9443 2.8975 10.5273 30.7018 -0.0817 -9.1844 -4.8197 0.7506 5.5336 15.4371 0.0000 0.0000 0.0000 13.3857 -6.8955 4.4147 -2.6594 -10.1222 29.3734 -1.6284 0.8422 -23.8893 -0.1208 -2.2404 6.1704 1.0701 -0.5914 -8.6671 -0.6568 -0.8641 -6.5557 -1.3363 -0.4864 -1.9612 -2.4076 -1.9546 -2.7704 5.7030 -2.6891 2.2944 2.1632 -1.2773 1.3165 -0.0000 -0.0000 0.0000 60.8608 -35.5406 -76.0479 15.4691 -24.7955 -3.4203 -0.0000 0.0000 -4.0607 41.0743 -27.2015 -21.7228 -7.1250 0.0000 -0.0000 6.2806 -4.1219 -6.7553 -0.0000 -0.0000 0.0000 -48.7263 27.3623 -81.6406 -14.3536 23.2380 -2.9662 0.0000 -0.0000 -4.1469 -31.0933 -20.3165 11.8265 7.1250 -0.0000 -0.0000 -2.7478 -53.3407 0.5640
13.3152 21.0848 20.9846 -1.0008 -5.5159 340.9850 0.0000 0.0000 0.0000 -14.0808 4.2121 3.6086 2.7892 10.3457 30.1037 -0.0656 -8.5850 -4.6369 0.7634 5.5797 15.5696 0.0000 0.0000 0.0000 13.6008 -6.7306 4.4599 -2.4409 -9.7296 28.1055 -1.5416 0.4436 -23.3541 -0.1258 -2.2861 6.2970 1.1894 -0.5555 -8.5521 -0.6947 -0.8237 -6.5363 -1.4383 -0.4715 -2.0054 -2.4163 -1.9208 -2.6359 5.8098 -2.6379 2.0677 2.2013 -1.2549 1.2208 -0.0000 -0.0000 0.0000 60.9535 -35.2724 -75.9264 15.7707 -25.2087 -3.5477 -0.0000 0.0000 -4.8144 41.3569 -27.6480 -22.2192 -7.1250 0.0000 -0.0000 6.3305 -4.7417 -6.8728 -0.0000 -0.0000 0.0000 -48.8903 27.4624 -82.3413 -14.4094 23.3169 -2.9882 0.0000 -0.0000 -4.2182 -31.3446 -20.2319 11.8944 7.1250 -0.0000 -0.0000 -3.0285 -53.2968 0.6185
13.3204 21.1491 21.0011 -1.1650 -5.6119 341.6870 0.0000 0.0000 0.0000 -13.9636 3.9615 3.2765 2.6973 10.1881 29.5881 -0.0500 -8.0457 -4.5278 0.7650 5.5852 15.5856 0.0000 0.0000 0.0000 13.9112 -6.5254 4.5679 -2.2289 -9.3275 26.8252 -1.4715 0.0610 -22.9342 -0.1296 -2.3208 6.3930 1.3884 -0.5137 -8.4338 -0.6957 -0.7797 -6.5153 -1.5468 -0.4566 -2.0503 -2.3510 -1.9065 -2.5428 5.7545 -2.6163 1.9754 2.1721 -1.2468 1.1718 -0.0000 -0.0000 0.0000 61.0416 -34.9525 -75.6159 16.0549 -25.5950 -3.6696 -0.0000 0.0000 -5.7633 41.4527 -28.1850 -22.6448 -7.1250 0.0000 -0.0000 6.2507 -5.3944 -6.8499 -0.0000 -0.0000 0.0000 -49.0811 27.5755 -82.9680 -14.4679 23.3997 -3.0115 0.0000 -0.0000 -4.3163 -31.5030 -20.1685 11.9315 7.1250 -0.0000 -0.0000 -3.2068 -53.2579 0.6519
13.3252 21.2071 21.0177 -1.3626 -5.7290 342.3610 0.0000 0.0000 0.0000 -13.8101 3.6944 2.9593 2.6168 10.0472 29.1297 -0.0340 -7.5471 -4.4959 0.7635 5.5799 15.5703 0.0000 0.0000 0.0000 14.2722 -6.2708 4.7258 -2.0272 -8.9224 25.5529 -1.4219 -0.2707 -22.6555 -0.1320 -2.3420 6.4519 1.6109 -0.4685 -8.3148 -0.6631 -0.7318 -6.4870 -1.6338 -0.4398 -2.0874 -2.2768 -1.8990 -2.4765 5.6293 -2.6063 1.9859 2.1181 -1.2438 1.1591 -0.0000 0.0000 0.0000 61.0873 -34.6772 -75.3034 16.3207 -25.9535 -3.7852 -0.0000 0.0000 -6.6757 41.4121 -28.7341 -22.9776 -7.1250 0.0000 -0.0000 6.0896 -6.0063 -6.7298 -0.0000 0.0000 0.0000 -49.2873 27.6449 -83.3947 -14.5375 23.4979 -3.0391 0.0000 -0.0000 -4.5537 -31.5518 -20.1920 11.9666 7.1250 -0.0000 -0.0000 -3.2551 -53.2944 0.6646
13.3294 21.2593 21.0346 -1.5373 -5.8497 343.0040 0.0000 0.0000 0.0000 -13.6894 3.4177 2.6711 2.5422 9.9142 28.6995 -0.0169 -7.0758 -4.5461 0.7609 5.5706 15.5433 0.0000 0.0000 0.0000 14.6122 -5.9684 4.9135 -1.8394 -8.5233 24.3150 -1.3928 -0.5225 -22.5119 -0.1335 -2.3551 6.4881 1.7948 -0.4303 -8.1989 -0.6141 -0.6901 -6.4467 -1.6827 -0.4242 -2.1096 -2.2275 -1.8804 -2.4140 5.4954 -2.5836 2.0684 2.0662 -1.2340 1.1697 -0.0000 -0.0000 0.0000 61.0542 -34.3992 -74.8917 16.5779 -26.2980 -3.8985 -0.0000 0.0000 -7.5965 41.3536 -29.2501 -23.2713 -7.1250 0.0000 -0.0000 5.9257 -6.5703 -6.5983 -0.0000 -0.0000 0.0000 -49.5038 27.6896 -83.6612 -14.6118 23.6025 -3.0688 0.0000 -0.0000 -4.8948 -31.4985 -20.2751 11.9882 7.1250 -0.0000 -0.0000 -3.1857 -53.3769 0.6569
13.3336 21.3058 21.0525 -1.6796 -5.9632 343.6190 0.0000 0.0000 0.0000 -13.6168 3.1267 2.4242 2.4697 9.7826 28.2755 0.0009 -6.6372 -4.6716 0.7700 5.6030 15.6368 0.0000 0.0000 0.0000 14.9069 -5.6478 5.1056 -1.6689 -8.1393 23.1380 -1.3809 -0.6784 -22.4734 -0.1352 -2.3701 6.5296 1.9372 -0.3973 -8.0880 -0.5586 -0.6526 -6.4139 -1.7020 -0.4092 -2.1361 -2.2425 -1.8512 -2.3085 5.4013 -2.5486 2.2136 2.0396 -1.2179 1.1943 0.0000 0.0000 0.0000 60.9537 -34.2424 -74.5413 16.8039 -26.5985 -3.9991 -0.0000 0.0000 -8.3147 41.3498 -29.7432 -23.5866 -7.1250 0.0000 -0.0000 5.7964 -7.1269 -6.5022 0.0000 0.0000 0.0000 -49.7052 27.7726 -83.8154 -14.6868 23.7080 -3.0989 0.0000 -0.0000 -5.2506 -31.3973 -20.3493 11.9827 7.1250 -0.0000 -0.0000 -3.0662 -53.4395 0.6369
13.3379 21.3469 21.0714 -1.7883 -6.0709 344.2150 0.0000 0.0000 0.0000 -13.5935 2.8170 2.2134 2.3986 9.6511 27.8541 0.0191 -6.2529 -4.8732 0.7985 5.7036 15.9268 0.0000 0.0000 0.0000 15.1514 -5.3261 5.2816 -1.5163 -7.7761 22.0360 -1.3805 -0.7563 -22.4989 -0.1384 -2.3978 6.6064 2.0502 -0.3628 -8.0209 -0.5080 -0.6120 -6.3777 -1.7103 -0.3914 -2.1345 -2.3747 -1.8068 -2.0879 5.4426 -2.4928 2.3116 2.0794 -1.1930 1.1878 -0.0000 -0.0000 0.0000 60.8217 -34.2563 -74.3766 16.9851 -26.8382 -4.0806 -0.0000 0.0000 -8.7004 41.4232 -30.2034 -23.9354 -7.1250 0.0000 -0.0000 5.7165 -7.6742 -6.4589 -0.0000 -0.0000 0.0000 -49.8804 27.8911 -83.8986 -14.7625 23.8142 -3.1294 0.0000 -0.0000 -5.5843 -31.2937 -20.3700 11.9467 7.1250 -0.0000 -0.0000 -2.9524 -53.4416 0.6134
13.3424 21.3824 21.0907 -1.8467 -6.1700 344.7970 0.0000 0.0000 0.0000 -13.6338 2.4946 2.0174 2.3306 9.5232 27.4460 0.0376 -5.9364 -5.1416 0.8337 5.8248 16.2769 0.0000 0.0000 0.0000 15.3328 -4.9965 5.4332 -1.3803 -7.4344 21.0088 -1.3861 -0.7999 -22.5601 -0.1439 -2.4449 6.7369 2.1152 -0.3283 -7.9978 -0.4665 -0.5698 -6.3423 -1.7014 -0.3712 -2.1087 -2.6143 -1.7413 -1.7345 5.6226 -2.4083 2.3211 2.1852 -1.1558 1.1332 0.0000 0.0000 0.0000 60.6926 -34.2248 -74.0619 17.1258 -27.0234 -4.1444 -0.0000 0.0000 -9.1450 41.4537 -30.5849 -24.2005 -7.1250 0.0000 -0.0000 5.6323 -8.1147 -6.3998 0.0000 0.0000 0.0000 -50.0406 28.0487 -83.9326 -14.8324 23.9121 -3.1577 0.0000 -0.0000 -5.8823 -31.1963 -20.3236 11.8771 7.1250 -0.0000 -0.0000 -2.8560 -53.3696 0.5883
13.3472 21.4112 21.1095 -1.8741 -6.2605 345.3660 0.0000 0.0000 0.0000 -13.7108 2.1643 1.8212 2.2681 9.4035 27.0660 0.0559 -5.6951 -5.4555 0.8665 5.9355 16.5973 0.0000 0.0000 0.0000 15.4734 -4.6709 5.5642 -1.2590 -7.1129 20.0504 -1.3966 -0.8000 -22.6448 -0.1597 -2.5750 7.0976 2.1448 -0.3006 -7.9998 -0.4240 -0.5349 -6.3111 -1.6722 -0.3533 -2.0733 -2.8377 -1.6831 -1.4182 5.7796 -2.3358 2.3652 2.2805 -1.1241 1.0956 0.0000 -0.0000 0.0000 60.5707 -34.2322 -73.7857 17.2144 -27.1395 -4.1847 -0.0000 0.0000 -9.4495 41.4606 -30.8984 -24.4034 -7.1250 0.0000 -0.0000 5.5525 -8.4684 -6.3373 0.0000 -0.0000 0.0000 -50.2080 28.2585 -83.9542 -14.8955 24.0004 -3.1833 0.0000 -0.0000 -6.1240 -31.1065 -20.2523 11.7976 7.1250 -0.0000 -0.0000 -2.7720 -53.2712 0.5643
13.3519 21.4334 21.1272 -1.9059 -6.3521 345.9260 0.0000 0.0000 0.0000 -13.7770 1.8385 1.6154 2.2122 9.2947 26.7216 0.0738 -5.5296 -5.7965 0.8931 6.0236 16.8529 0.0000 0.0000 0.0000 15.6173 -4.3441 5.6743 -1.1508 -6.8113 19.1574 -1.4116 -0.7766 -22.7560 -0.1890 -2.8000 7.7225 2.1694 -0.2827 -7.9709 -0.3632 -0.5117 -6.3200 -1.6215 -0.3417 -2.0971 -3.0415 -1.6383 -1.1022 5.8712 -2.2820 2.4308 2.3506 -1.1024 1.0638 -0.0000 -0.0000 0.0000 60.4158 -34.3456 -73.5533 17.2592 -27.1983 -4.2051 -0.0000 0.0000 -9.5756 41.4510 -31.1601 -24.5603 -7.1250 0.0000 -0.0000 5.4770 -8.7568 -6.2736 -0.0000 -0.0000 0.0000 -50.3737 28.5527 -83.9118 -14.9611 24.0919 -3.2101 0.0000 -0.0000 -6.3246 -31.0478 -20.1960 11.7406 7.1250 -0.0000 -0.0000 -2.7188 -53.1963 0.5485
13.3561 21.4501 21.1437 -1.9494 -6.4471 346.4790 0.0000 0.0000 0.0000 -13.8198 1.5290 1.3926 2.1626 9.1969 26.4131 0.0915 -5.4368 -6.1549 0.9130 6.0885 17.0415 0.0000 0.0000 0.0000 15.7795 -3.9984 5.7608 -1.0546 -6.5298 18.3296 -1.4316 -0.7686 -22.9119 -0.2335 -3.1100 8.5852 2.1905 -0.2736 -7.9404 -0.2841 -0.4996 -6.3408 -1.5506 -0.3355 -2.1344 -3.1809 -1.6161 -0.8513 5.8493 -2.2586 2.5425 2.3707 -1.0952 1.0561 0.0000 -0.0000 0.0000 60.2545 -34.5565 -73.4500 17.2629 -27.2030 -4.2068 -0.0000 0.0000 -9.4652 41.4396 -31.3822 -24.6901 -7.1250 0.0000 -0.0000 5.4109 -8.9996 -6.2164 0.0000 -0.0000 0.0000 -50.5504 28.8875 -83.8225 -15.0255 24.1816 -3.2364 0.0000 -0.0000 -6.4768 -31.0624 -20.1613 11.7284 7.1250 -0.0000 -0.0000 -2.7399 -53.1603 0.5503
13.3594 21.4615 21.1594 -1.9825 -6.5333 347.0150 0.0000 0.0000 0.0000 -13.8677 1.2307 1.1688 2.1174 9.1064 26.1288 0.1100 -5.4148 -6.5428 0.9295 6.1419 17.1966 0.0000 0.0000 0.0000 15.9317 -3.6398 5.8224 -0.9703 -6.2713 17.5737 -1.4564 -0.7925 -23.1165 -0.2928 -3.4798 9.6175 2.1846 -0.2666 -7.9024 -0.2101 -0.4886 -6.3586 -1.4698 -0.3290 -2.1726 -3.1698 -1.6334 -0.7347 5.6510 -2.2885 2.7705 2.3035 -1.1122 1.1058 -0.0000 -0.0000 0.0000 60.1222 -34.8202 -73.4322 17.2415 -27.1750 -4.1970 -0.0000 0.0000 -9.2353 41.4278 -31.5829 -24.8055 -7.1250 0.0000 -0.0000 5.3501 -9.2179 -6.1628 -0.0000 -0.0000 0.0000 -50.7059 29.2098 -83.6570 -15.0864 24.2663 -3.2614 0.0000 -0.0000 -6.5892 -31.1281 -20.1739 11.7648 7.1250 -0.0000 -0.0000 -2.8076 -53.1878 0.5658
13.3620 21.4676 21.1743 -1.9937 -6.6011 347.5230 0.0000 0.0000 0.0000 -13.9360 0.9451 0.9636 2.0741 9.0188 25.8542 0.1295 -5.4604 -6.9590 0.9405 6.1769 17.2985 0.0000 0.0000 0.0000 16.0541 -3.2841 5.8588 -0.8978 -6.0389 16.8972 -1.4847 -0.8569 -23.3618 -0.3562 -3.8344 10.6111 2.1474 -0.2548 -7.8523 -0.1591 -0.4695 -6.3627 -1.3947 -0.3176 -2.2026 -3.0175 -1.6903 -0.7125 5.3132 -2.3703 3.0783 2.1638 -1.1534 1.1946 0.0000 -0.0000 0.0000 60.0300 -35.0748 -73.3822 17.2152 -27.1405 -4.1850 -0.0000 0.0000 -9.0757 41.4101 -31.7861 -24.9175 -7.1250 0.0000 -0.0000 5.2852 -9.4362 -6.1041 0.0000 -0.0000 0.0000 -50.8113 29.4979 -83.4418 -15.1451 24.3478 -3.2855 0.0000 -0.0000 -6.6250 -31.1764 -20.2282 11.8162 7.1250 -0.0000 -0.0000 -2.8503 -53.2585 0.5794
